<mxfile host="app.diagrams.net" modified="2023-11-06T15:20:05.597Z" agent="Mozilla/5.0 (Macintosh; Intel Mac OS X 10_15_7) AppleWebKit/537.36 (KHTML, like Gecko) Chrome/119.0.0.0 Safari/537.36" etag="H3BbeCeHLGV_JQzzL6QK" version="22.0.8" type="google">
  <diagram name="Page-1" id="_Z38vK08z8CbB_jLx8U9">
    <mxGraphModel grid="1" page="1" gridSize="10" guides="1" tooltips="1" connect="1" arrows="1" fold="1" pageScale="1" pageWidth="850" pageHeight="1100" math="0" shadow="0">
      <root>
        <mxCell id="0" />
        <mxCell id="1" parent="0" />
        <mxCell id="kN9CzdCHYQ5Ii9hW1tz9-2" style="edgeStyle=orthogonalEdgeStyle;rounded=0;orthogonalLoop=1;jettySize=auto;html=1;" edge="1" parent="1" source="kN9CzdCHYQ5Ii9hW1tz9-1" target="kN9CzdCHYQ5Ii9hW1tz9-3">
          <mxGeometry relative="1" as="geometry">
            <mxPoint x="365" y="170" as="targetPoint" />
          </mxGeometry>
        </mxCell>
        <mxCell id="kN9CzdCHYQ5Ii9hW1tz9-1" value="start" style="ellipse;whiteSpace=wrap;html=1;" vertex="1" parent="1">
          <mxGeometry x="305" y="40" width="120" height="80" as="geometry" />
        </mxCell>
        <mxCell id="kN9CzdCHYQ5Ii9hW1tz9-5" style="edgeStyle=orthogonalEdgeStyle;rounded=0;orthogonalLoop=1;jettySize=auto;html=1;" edge="1" parent="1" source="kN9CzdCHYQ5Ii9hW1tz9-3">
          <mxGeometry relative="1" as="geometry">
            <mxPoint x="365" y="270" as="targetPoint" />
          </mxGeometry>
        </mxCell>
        <mxCell id="kN9CzdCHYQ5Ii9hW1tz9-3" value="a,b" style="shape=parallelogram;perimeter=parallelogramPerimeter;whiteSpace=wrap;html=1;fixedSize=1;" vertex="1" parent="1">
          <mxGeometry x="305" y="160" width="120" height="60" as="geometry" />
        </mxCell>
        <mxCell id="kN9CzdCHYQ5Ii9hW1tz9-7" value="false" style="edgeStyle=orthogonalEdgeStyle;rounded=0;orthogonalLoop=1;jettySize=auto;html=1;" edge="1" parent="1" source="kN9CzdCHYQ5Ii9hW1tz9-6">
          <mxGeometry relative="1" as="geometry">
            <mxPoint x="365" y="390" as="targetPoint" />
          </mxGeometry>
        </mxCell>
        <mxCell id="kN9CzdCHYQ5Ii9hW1tz9-19" style="edgeStyle=orthogonalEdgeStyle;rounded=0;orthogonalLoop=1;jettySize=auto;html=1;" edge="1" parent="1" source="kN9CzdCHYQ5Ii9hW1tz9-6">
          <mxGeometry relative="1" as="geometry">
            <mxPoint x="450" y="310" as="targetPoint" />
          </mxGeometry>
        </mxCell>
        <mxCell id="kN9CzdCHYQ5Ii9hW1tz9-6" value="a=b" style="rhombus;whiteSpace=wrap;html=1;" vertex="1" parent="1">
          <mxGeometry x="325" y="270" width="80" height="80" as="geometry" />
        </mxCell>
        <mxCell id="kN9CzdCHYQ5Ii9hW1tz9-12" style="edgeStyle=orthogonalEdgeStyle;rounded=0;orthogonalLoop=1;jettySize=auto;html=1;" edge="1" parent="1" source="kN9CzdCHYQ5Ii9hW1tz9-8" target="kN9CzdCHYQ5Ii9hW1tz9-11">
          <mxGeometry relative="1" as="geometry" />
        </mxCell>
        <mxCell id="kN9CzdCHYQ5Ii9hW1tz9-17" value="true" style="edgeLabel;html=1;align=center;verticalAlign=middle;resizable=0;points=[];" connectable="0" vertex="1" parent="kN9CzdCHYQ5Ii9hW1tz9-12">
          <mxGeometry x="-0.3043" relative="1" as="geometry">
            <mxPoint as="offset" />
          </mxGeometry>
        </mxCell>
        <mxCell id="kN9CzdCHYQ5Ii9hW1tz9-15" value="" style="edgeStyle=orthogonalEdgeStyle;rounded=0;orthogonalLoop=1;jettySize=auto;html=1;" edge="1" parent="1" source="kN9CzdCHYQ5Ii9hW1tz9-8" target="kN9CzdCHYQ5Ii9hW1tz9-14">
          <mxGeometry relative="1" as="geometry" />
        </mxCell>
        <mxCell id="kN9CzdCHYQ5Ii9hW1tz9-16" value="false" style="edgeLabel;html=1;align=center;verticalAlign=middle;resizable=0;points=[];" connectable="0" vertex="1" parent="kN9CzdCHYQ5Ii9hW1tz9-15">
          <mxGeometry x="-0.2615" y="2" relative="1" as="geometry">
            <mxPoint as="offset" />
          </mxGeometry>
        </mxCell>
        <mxCell id="kN9CzdCHYQ5Ii9hW1tz9-8" value="a&amp;gt;b" style="rhombus;whiteSpace=wrap;html=1;" vertex="1" parent="1">
          <mxGeometry x="325" y="390" width="80" height="80" as="geometry" />
        </mxCell>
        <mxCell id="kN9CzdCHYQ5Ii9hW1tz9-11" value="a=a-b" style="rounded=0;whiteSpace=wrap;html=1;" vertex="1" parent="1">
          <mxGeometry x="410" y="480" width="120" height="60" as="geometry" />
        </mxCell>
        <mxCell id="kN9CzdCHYQ5Ii9hW1tz9-14" value="a=b-a" style="whiteSpace=wrap;html=1;" vertex="1" parent="1">
          <mxGeometry x="185" y="480" width="120" height="60" as="geometry" />
        </mxCell>
        <mxCell id="kN9CzdCHYQ5Ii9hW1tz9-21" style="edgeStyle=orthogonalEdgeStyle;rounded=0;orthogonalLoop=1;jettySize=auto;html=1;" edge="1" parent="1" source="kN9CzdCHYQ5Ii9hW1tz9-20">
          <mxGeometry relative="1" as="geometry">
            <mxPoint x="610" y="310" as="targetPoint" />
          </mxGeometry>
        </mxCell>
        <mxCell id="kN9CzdCHYQ5Ii9hW1tz9-20" value="ưcln" style="shape=parallelogram;perimeter=parallelogramPerimeter;whiteSpace=wrap;html=1;fixedSize=1;" vertex="1" parent="1">
          <mxGeometry x="440" y="280" width="120" height="60" as="geometry" />
        </mxCell>
        <mxCell id="kN9CzdCHYQ5Ii9hW1tz9-22" value="bcnn=a*b/ưcln" style="shape=parallelogram;perimeter=parallelogramPerimeter;whiteSpace=wrap;html=1;fixedSize=1;" vertex="1" parent="1">
          <mxGeometry x="600" y="280" width="120" height="60" as="geometry" />
        </mxCell>
      </root>
    </mxGraphModel>
  </diagram>
</mxfile>
